<mxfile host="app.diagrams.net" modified="2024-05-21T01:54:38.639Z" agent="Mozilla/5.0 (Windows NT 10.0; Win64; x64) AppleWebKit/537.36 (KHTML, like Gecko) Chrome/124.0.0.0 Safari/537.36" version="24.4.4" etag="hl2DuGlXnGfoHyp0HZlO" type="github">
  <diagram name="Page-1" id="Jmv4LRNJFHiClE_PWAh1">
    <mxGraphModel>
      <root>
        <mxCell id="0" />
        <mxCell id="1" parent="0" />
      </root>
    </mxGraphModel>
  </diagram>
</mxfile>
